<svg xmlns="http://www.w3.org/2000/svg" xmlns:xlink="http://www.w3.org/1999/xlink" width="500" zoomAndPan="magnify" viewBox="0 0 375 374.999991" height="500" preserveAspectRatio="xMidYMid meet" version="1.0"><defs><g/><clipPath id="aab2f3fbcf"><path d="M 83 37.5 L 178 37.5 L 178 166 L 83 166 Z M 83 37.5 " clip-rule="nonzero"/></clipPath><clipPath id="f507d9d308"><path d="M 55.84375 153 L 153 153 L 153 209 L 55.84375 209 Z M 55.84375 153 " clip-rule="nonzero"/></clipPath><clipPath id="779c1a966d"><path d="M 181 163 L 319.09375 163 L 319.09375 248 L 181 248 Z M 181 163 " clip-rule="nonzero"/></clipPath><clipPath id="91092610f8"><path d="M 161 160 L 205 160 L 205 341.867188 L 161 341.867188 Z M 161 160 " clip-rule="nonzero"/></clipPath></defs><rect x="-37.5" width="450" fill="#ffffff" y="-37.499999" height="449.999989" fill-opacity="1"/><rect x="-37.5" width="450" fill="#f9fafb" y="-37.499999" height="449.999989" fill-opacity="1"/><path fill="#10b981" d="M 208.054688 125.882812 C 200.699219 133.210938 194.253906 142.867188 189.519531 155.558594 C 189.519531 155.558594 192.523438 156.890625 197.574219 158.222656 C 216.203125 163.136719 262.75 168.085938 289.671875 106.503906 C 289.671875 106.503906 240.1875 93.871094 208.054688 125.882812 " fill-opacity="1" fill-rule="nonzero"/><g clip-path="url(#aab2f3fbcf)"><path fill="#10b981" d="M 129.429688 146.695312 C 141.351562 155.246094 156.316406 161.988281 175.109375 165.636719 C 175.109375 165.636719 176.261719 161.136719 176.945312 153.789062 C 179.460938 126.671875 175.542969 60.636719 83.4375 37.425781 C 83.4375 37.425781 77.332031 109.34375 129.429688 146.695312 " fill-opacity="1" fill-rule="nonzero"/></g><g clip-path="url(#f507d9d308)"><path fill="#10b981" d="M 89.484375 153.628906 C 79.550781 152.285156 68.359375 153.003906 55.84375 156.820312 C 55.84375 156.820312 56.589844 159.902344 58.53125 164.558594 C 65.691406 181.734375 89.203125 220.347656 152.242188 204.867188 C 152.242188 204.867188 132.898438 159.496094 89.484375 153.628906 " fill-opacity="1" fill-rule="nonzero"/></g><g clip-path="url(#779c1a966d)"><path fill="#10b981" d="M 205.40625 198.460938 C 195.574219 209.351562 187.195312 223.460938 181.460938 241.726562 C 181.460938 241.726562 185.800781 243.375 193.027344 244.878906 C 219.6875 250.425781 285.746094 253.945312 319.152344 165.027344 C 319.152344 165.027344 248.371094 150.886719 205.40625 198.460938 " fill-opacity="1" fill-rule="nonzero"/></g><g clip-path="url(#91092610f8)"><path fill="#10b981" d="M 188.492188 341.808594 C 188.160156 341.425781 188.011719 341.222656 187.808594 340.96875 C 187.609375 340.714844 187.441406 340.488281 187.273438 340.261719 L 186.761719 339.574219 L 186.28125 338.898438 C 185.632812 338 185.050781 337.109375 184.449219 336.214844 C 183.875 335.324219 183.304688 334.429688 182.75 333.535156 C 182.214844 332.636719 181.667969 331.742188 181.144531 330.839844 C 179.050781 327.238281 177.203125 323.558594 175.46875 319.847656 C 172.054688 312.40625 169.257812 304.765625 167.078125 297 C 164.898438 289.234375 163.335938 281.347656 162.355469 273.433594 C 161.367188 265.515625 160.957031 257.578125 161.019531 249.6875 C 161.171875 245.738281 161.226562 241.804688 161.613281 237.890625 L 161.847656 234.960938 C 161.890625 234.46875 161.914062 233.980469 161.976562 233.492188 L 162.160156 232.035156 L 162.886719 226.210938 C 164.082031 218.484375 165.523438 210.832031 167.585938 203.355469 C 171.546875 188.371094 177.0625 173.945312 183.738281 160.179688 C 178.753906 174.644531 175.054688 189.484375 172.96875 204.441406 C 171.839844 211.90625 171.351562 219.429688 171.09375 226.898438 L 171.070312 232.503906 L 171.0625 233.902344 C 171.058594 234.367188 171.09375 234.835938 171.105469 235.300781 L 171.21875 238.09375 C 171.292969 241.8125 171.695312 245.511719 171.988281 249.199219 C 172.824219 256.558594 174.085938 263.832031 175.851562 270.9375 C 177.617188 278.042969 179.886719 284.980469 182.664062 291.664062 C 185.4375 298.34375 188.722656 304.765625 192.441406 310.824219 C 194.320312 313.839844 196.273438 316.789062 198.378906 319.566406 C 198.902344 320.261719 199.441406 320.9375 199.96875 321.625 C 200.507812 322.292969 201.046875 322.953125 201.589844 323.605469 C 202.144531 324.238281 202.6875 324.890625 203.238281 325.476562 L 203.644531 325.929688 L 204.042969 326.34375 C 204.175781 326.480469 204.3125 326.628906 204.421875 326.734375 C 204.535156 326.839844 204.691406 327.003906 204.683594 326.972656 L 188.492188 341.808594 " fill-opacity="1" fill-rule="nonzero"/></g><g fill="#ffffff" fill-opacity="1"><g transform="translate(7.257577, 371.405743)"><g><path d="M 1.484375 0 L 1.484375 -7.34375 L 0.703125 -7.34375 L 0.703125 0 Z M 1.484375 0 "/></g></g></g><g fill="#ffffff" fill-opacity="1"><g transform="translate(9.422036, 371.405743)"><g><path d="M 1.296875 -2.296875 L 5.03125 -2.296875 L 5.03125 -2.4375 C 5.03125 -4.34375 3.84375 -5.0625 2.78125 -5.0625 C 1.765625 -5.0625 0.40625 -4.359375 0.40625 -2.5 C 0.40625 -0.5625 1.609375 0.15625 2.8125 0.15625 C 4.453125 0.15625 4.90625 -1.15625 5.03125 -1.5 L 4.1875 -1.609375 C 4.078125 -1.171875 3.75 -0.46875 2.890625 -0.46875 C 1.71875 -0.46875 1.296875 -1.484375 1.296875 -2.234375 Z M 1.328125 -2.90625 C 1.390625 -3.6875 1.828125 -4.40625 2.71875 -4.40625 C 3.546875 -4.40625 4.125 -3.71875 4.125 -2.90625 Z M 1.328125 -2.90625 "/></g></g></g><g fill="#ffffff" fill-opacity="1"><g transform="translate(14.843596, 371.405743)"><g><path d="M 3.59375 -2.9375 L 2.84375 -2.875 C 2.234375 -2.84375 1.359375 -2.703125 0.859375 -2.328125 C 0.390625 -1.984375 0.328125 -1.5 0.328125 -1.265625 C 0.328125 -0.421875 1.015625 0.140625 2 0.140625 C 2.9375 0.140625 3.4375 -0.421875 3.671875 -0.671875 C 3.6875 -0.515625 3.8125 -0.203125 4 -0.0625 C 4.1875 0.0625 4.484375 0.0625 4.53125 0.0625 C 4.65625 0.0625 4.8125 0.046875 5.0625 -0.03125 L 5.0625 -0.734375 C 4.96875 -0.703125 4.90625 -0.6875 4.8125 -0.6875 C 4.4375 -0.6875 4.4375 -0.96875 4.4375 -1.265625 L 4.4375 -2.984375 C 4.4375 -3.859375 4.390625 -4.375 3.6875 -4.765625 C 3.28125 -5 2.765625 -5.0625 2.46875 -5.0625 C 0.734375 -5.0625 0.578125 -3.6875 0.578125 -3.4375 L 1.453125 -3.390625 L 1.453125 -3.46875 C 1.453125 -4.078125 1.828125 -4.421875 2.515625 -4.421875 C 3.59375 -4.421875 3.59375 -3.5625 3.59375 -3.09375 Z M 3.609375 -2.390625 L 3.609375 -2.015625 C 3.609375 -0.75 2.625 -0.5625 2.171875 -0.5625 C 1.515625 -0.5625 1.25 -0.921875 1.25 -1.296875 C 1.25 -1.765625 1.703125 -1.984375 1.859375 -2.046875 C 2.234375 -2.203125 3.21875 -2.328125 3.609375 -2.390625 Z M 3.609375 -2.390625 "/></g></g></g><g fill="#ffffff" fill-opacity="1"><g transform="translate(20.046627, 371.405743)"><g><path d="M 0.671875 -4.90625 L 0.671875 0 L 1.515625 0 L 1.515625 -2.265625 C 1.515625 -2.75 1.515625 -2.921875 1.578125 -3.171875 C 1.75 -3.78125 2.265625 -4.09375 2.859375 -4.09375 C 2.96875 -4.09375 3.078125 -4.09375 3.1875 -4.0625 L 3.1875 -4.96875 C 2.546875 -4.96875 2.171875 -4.71875 1.96875 -4.5625 C 1.765625 -4.40625 1.625 -4.21875 1.515625 -4 L 1.515625 -4.90625 Z M 0.671875 -4.90625 "/></g></g></g><g fill="#ffffff" fill-opacity="1"><g transform="translate(23.303723, 371.405743)"><g><path d="M 4.734375 0 L 4.734375 -3.09375 C 4.734375 -3.5625 4.71875 -3.984375 4.4375 -4.375 C 4 -5 3.25 -5.0625 3.03125 -5.0625 C 2.203125 -5.0625 1.703125 -4.546875 1.5 -4.1875 L 1.5 -4.90625 L 0.671875 -4.90625 L 0.671875 0 L 1.5 0 L 1.5 -2.90625 C 1.5 -3.78125 2.109375 -4.28125 2.796875 -4.28125 C 3.375 -4.28125 3.90625 -3.96875 3.90625 -3.21875 L 3.90625 0 Z M 4.734375 0 "/></g></g></g><g fill="#ffffff" fill-opacity="1"><g transform="translate(28.725282, 371.405743)"><g/></g></g><g fill="#ffffff" fill-opacity="1"><g transform="translate(31.545325, 371.405743)"><g><path d="M 0.328125 -1.578125 C 0.46875 -0.625 1.015625 0.15625 2.609375 0.15625 C 3.765625 0.15625 4.65625 -0.453125 4.65625 -1.390625 C 4.65625 -2.296875 3.9375 -2.609375 3.015625 -2.8125 L 2.546875 -2.9375 C 1.796875 -3.109375 1.359375 -3.28125 1.359375 -3.703125 C 1.359375 -4.015625 1.640625 -4.421875 2.328125 -4.421875 C 3.03125 -4.421875 3.4375 -4.0625 3.5625 -3.796875 C 3.609375 -3.6875 3.625 -3.578125 3.625 -3.34375 L 4.53125 -3.4375 C 4.5 -3.59375 4.46875 -3.890625 4.265625 -4.1875 C 4.03125 -4.546875 3.46875 -5.0625 2.4375 -5.0625 C 1.546875 -5.0625 0.53125 -4.671875 0.53125 -3.59375 C 0.53125 -2.90625 0.9375 -2.4375 2.28125 -2.171875 L 2.75 -2.078125 C 3.203125 -2 3.78125 -1.890625 3.78125 -1.296875 C 3.78125 -0.609375 3.046875 -0.484375 2.640625 -0.484375 C 2.234375 -0.484375 1.828125 -0.53125 1.546875 -0.859375 C 1.296875 -1.109375 1.265625 -1.390625 1.265625 -1.71875 Z M 0.328125 -1.578125 "/></g></g></g><g fill="#ffffff" fill-opacity="1"><g transform="translate(36.529829, 371.405743)"><g><path d="M 0.671875 -4.90625 L 0.671875 2.328125 L 1.484375 2.328125 L 1.484375 -0.578125 C 1.859375 -0.078125 2.515625 0.15625 3.140625 0.15625 C 4.90625 0.15625 5.4375 -1.3125 5.4375 -2.4375 C 5.4375 -4.265625 4.25 -5.0625 3.234375 -5.0625 C 2.390625 -5.0625 1.765625 -4.546875 1.484375 -4.203125 L 1.484375 -4.90625 Z M 1.484375 -2.359375 C 1.484375 -3.578125 2.140625 -4.28125 3.078125 -4.28125 C 3.78125 -4.28125 4.59375 -3.78125 4.59375 -2.46875 C 4.59375 -1.328125 4.0625 -0.578125 3.03125 -0.578125 C 2.078125 -0.578125 1.484375 -1.25 1.484375 -2.359375 Z M 1.484375 -2.359375 "/></g></g></g><g fill="#ffffff" fill-opacity="1"><g transform="translate(42.378036, 371.405743)"><g><path d="M 0.671875 -4.90625 L 0.671875 0 L 1.515625 0 L 1.515625 -2.265625 C 1.515625 -2.75 1.515625 -2.921875 1.578125 -3.171875 C 1.75 -3.78125 2.265625 -4.09375 2.859375 -4.09375 C 2.96875 -4.09375 3.078125 -4.09375 3.1875 -4.0625 L 3.1875 -4.96875 C 2.546875 -4.96875 2.171875 -4.71875 1.96875 -4.5625 C 1.765625 -4.40625 1.625 -4.21875 1.515625 -4 L 1.515625 -4.90625 Z M 0.671875 -4.90625 "/></g></g></g><g fill="#ffffff" fill-opacity="1"><g transform="translate(45.635132, 371.405743)"><g><path d="M 0.421875 -2.453125 C 0.421875 -0.765625 1.453125 0.15625 2.8125 0.15625 C 4.125 0.15625 5.21875 -0.734375 5.21875 -2.5 C 5.21875 -4.25 4.03125 -5.0625 2.890625 -5.0625 C 0.765625 -5.0625 0.421875 -3.234375 0.421875 -2.453125 Z M 1.328125 -2.40625 C 1.328125 -2.71875 1.328125 -4.390625 2.875 -4.390625 C 4 -4.390625 4.328125 -3.40625 4.328125 -2.5625 C 4.328125 -1.296875 3.8125 -0.515625 2.8125 -0.515625 C 1.5 -0.515625 1.328125 -1.828125 1.328125 -2.40625 Z M 1.328125 -2.40625 "/></g></g></g><g fill="#ffffff" fill-opacity="1"><g transform="translate(51.275215, 371.405743)"><g><path d="M 4.71875 0 L 4.71875 -4.90625 L 3.90625 -4.90625 L 3.90625 -2.390625 C 3.90625 -1.984375 3.90625 -1.578125 3.671875 -1.21875 C 3.3125 -0.703125 2.6875 -0.65625 2.515625 -0.65625 C 1.984375 -0.65625 1.71875 -0.921875 1.609375 -1.125 C 1.5 -1.359375 1.5 -1.59375 1.5 -2.109375 L 1.5 -4.90625 L 0.671875 -4.90625 L 0.671875 -1.75 C 0.671875 -1.328125 0.703125 -0.90625 0.921875 -0.515625 C 1.296875 0.09375 2.0625 0.125 2.234375 0.125 C 2.875 0.125 3.53125 -0.203125 3.90625 -0.75 L 3.90625 0 Z M 4.71875 0 "/></g></g></g><g fill="#ffffff" fill-opacity="1"><g transform="translate(56.696774, 371.405743)"><g><path d="M 1.8125 -4.21875 L 2.6875 -4.21875 L 2.6875 -4.90625 L 1.8125 -4.90625 L 1.8125 -6.453125 L 0.953125 -6.453125 L 0.953125 -4.90625 L 0.171875 -4.90625 L 0.171875 -4.21875 L 0.953125 -4.21875 L 0.953125 -0.796875 C 0.953125 -0.234375 1.09375 0.078125 1.90625 0.078125 C 2.234375 0.078125 2.625 0.015625 2.6875 0 L 2.6875 -0.6875 C 2.46875 -0.609375 2.265625 -0.578125 2.171875 -0.578125 C 1.921875 -0.578125 1.8125 -0.703125 1.8125 -1.0625 Z M 1.8125 -4.21875 "/></g></g></g></svg>